<svg xmlns="http://www.w3.org/2000/svg" xmlns:svg="http://www.w3.org/2000/svg" xmlns:xlink="http://www.w3.org/1999/xlink" version="1.0" height="489.9999861717224pt" width="625.5882298946381pt" viewBox="460 538 633.5882298946381 495.9999861717224" ><defs><style type="text/css">
            @font-face {
                font-family: 'noto_regular';
                src: url('https://app.creately.com/diagram/assets/fonts/noto/noto-regular.woff') format('woff'),
                     url('https://app.creately.com/diagram/assets/fonts/noto/noto-regular.woff2') format('woff2');
                font-weight: normal;
                font-style: normal;
            }
        p {
            margin: 0;
        }
        </style></defs><defs><style>
            span{ display: inline-block; }
        </style></defs><g id="2l9om7ax4s"><g transform="translate(635 565)"><rect x="0" y="0" width="301" height="465.9999861717224" fill="rgba(255,255,255,1)" stroke="#000000" stroke-width="1.5" stroke-linecap="round" stroke-linejoin="round"/></g><g transform="translate(763, 575) rotate(0, 22.5, 0)" width="45" height="18"><text text-decoration="none" x="1" fill="rgb(84, 84, 84)" font-size="10pt" font-family="noto_regular"  y="15">System</text><text text-decoration="none" x="44" fill="#4b4b4b" font-size="10pt" font-family="noto_regular"  y="15"></text></g><g transform="translate(651, 541) rotate(0, 134.5, 19)" width="269" height="19"><text text-decoration="none" x="13.5" fill="rgb(0, 0, 0)" font-size="12pt" font-family="Arial"  y="15">Text&#160;</text><text text-decoration="none" x="48.5" fill="rgb(0, 0, 0)" font-size="12pt" font-family="Arial"  y="15">To&#160;</text><text text-decoration="none" x="71.5" fill="rgb(0, 0, 0)" font-size="12pt" font-family="Arial"  y="15">speech&#160;</text><text text-decoration="none" x="125.5" fill="rgb(0, 0, 0)" font-size="12pt" font-family="Arial"  y="15">Use&#160;</text><text text-decoration="none" x="155.5" fill="rgb(0, 0, 0)" font-size="12pt" font-family="Arial"  y="15">Case&#160;</text><text text-decoration="none" x="194.5" fill="rgb(0, 0, 0)" font-size="12pt" font-family="Arial"  y="15">Diagram</text><text text-decoration="none" x="255.5" fill="#4b4b4b" font-size="10pt" font-family="noto_regular"  y="15"></text></g></g><g id="2p4odjamjm"><g transform="translate(465 680)"><ellipse cx="20.5" cy="10.125" rx="10.25" ry="10.125" fill="rgba(255,255,255,1)" stroke="#956642" stroke-width="2" stroke-linecap="round" stroke-linejoin="round"/><path d="M 20.5,20.25 L 20.5,48.6 L 41,81 M 20.5,48.6 L 0,81 M 2.0500000000000003,30.375 L 38.95,30.375" fill="none" stroke="#956642" stroke-width="2" stroke-linecap="round" stroke-linejoin="round"/><rect x="0" y="0" width="41" height="81" fill="rgba(255,255,255,0.01)" stroke="rgba(255,255,255,0.01)" stroke-width="2" stroke-linecap="round" stroke-linejoin="round"/></g><g transform="translate(472, 766) rotate(0, 13.5, 0)" width="27" height="19"><text text-decoration="none" x="1.5" fill="rgb(75, 51, 33)" font-size="9pt" font-family="Arial"  y="15">User</text><text text-decoration="none" x="25.5" fill="#4b4b4b" font-size="10pt" font-family="noto_regular"  y="15"></text></g></g><g id="1bh2vziwav"><g transform="translate(685 600)"><ellipse cx="45.5" cy="30.5" rx="45.5" ry="30.5" fill="rgba(143,212,232,1)" stroke="#2a3333" stroke-width="2" stroke-linecap="round" stroke-linejoin="round"/></g><g transform="translate(697.5, 621) rotate(0, 33, 9.5)" width="66" height="19"><text text-decoration="none" x="3" fill="rgb(17, 17, 17)" font-size="9pt" font-family="Arial"  y="15">Write&#160;</text><text text-decoration="none" x="34" fill="rgb(17, 17, 17)" font-size="9pt" font-family="Arial"  y="15">Word</text><text text-decoration="none" x="63" fill="#4b4b4b" font-size="10pt" font-family="noto_regular"  y="15"></text></g></g><g id="2vbn26q9w2"><g><path d="M 505,720 L 690,640" fill="none" stroke="#003494" stroke-width="2" stroke-linecap="round" stroke-linejoin="round"/><path d="M 690,640 L 679.7363953534704,638.1737233535376 L 684.3008735863532,648.7290792670792 Z" fill="rgb(0,52,148)" stroke="#003494" stroke-width="2" stroke-linecap="round" stroke-linejoin="round"/></g></g><g id="29k3wkcx2w"><g transform="translate(685 705)"><ellipse cx="45.5" cy="30.5" rx="45.5" ry="30.5" fill="rgba(143,212,232,1)" stroke="#2a3333" stroke-width="2" stroke-linecap="round" stroke-linejoin="round"/></g><g transform="translate(698.5, 711) rotate(0, 32, 24.5)" width="64" height="49"><text text-decoration="none" x="3" fill="rgb(17, 17, 17)" font-size="9pt" font-family="Arial"  y="11">Upload&#160;</text><text text-decoration="none" x="45" fill="rgb(17, 17, 17)" font-size="9pt" font-family="Arial"  y="11">file&#160;</text><text text-decoration="none" x="3" fill="rgb(17, 17, 17)" font-size="9pt" font-family="Arial"  y="26">containing&#160;</text><text text-decoration="none" x="14.5" fill="rgb(17, 17, 17)" font-size="9pt" font-family="Arial"  y="45">Words</text><text text-decoration="none" x="49.5" fill="#4b4b4b" font-size="10pt" font-family="noto_regular"  y="45"></text></g></g><g id="1y3bswwa1l"><g><path d="M 505,720 L 685,735" fill="none" stroke="#003494" stroke-width="2" stroke-linecap="round" stroke-linejoin="round"/><path d="M 685,735 L 676.8118962200731,728.5477272826681 L 675.8568732017551,740.0080035024843 Z" fill="rgb(0,52,148)" stroke="#003494" stroke-width="2" stroke-linecap="round" stroke-linejoin="round"/></g></g><g id="oh8torcqn7"><g transform="translate(685 885)"><ellipse cx="45.5" cy="30.5" rx="45.5" ry="30.5" fill="rgba(143,212,232,1)" stroke="#2a3333" stroke-width="2" stroke-linecap="round" stroke-linejoin="round"/></g><g transform="translate(690.5, 898.5) rotate(0, 40, 17)" width="80" height="34"><text text-decoration="none" x="17.5" fill="rgb(75, 51, 33)" font-size="9pt" font-family="Arial"  y="11">R&#160;</text><text text-decoration="none" x="24.5" fill="rgb(17, 17, 17)" font-size="9pt" font-family="Arial"  y="11">e-listen&#160;</text><text text-decoration="none" x="4.5" fill="rgb(17, 17, 17)" font-size="9pt" font-family="Arial"  y="30">specific&#160;</text><text text-decoration="none" x="48.5" fill="rgb(17, 17, 17)" font-size="9pt" font-family="Arial"  y="30">word</text><text text-decoration="none" x="75.5" fill="#4b4b4b" font-size="10pt" font-family="noto_regular"  y="30"></text></g></g><g id="1qelxy2axo"><g><path d="M 485.3985,720.403 L 685,915" fill="none" stroke="#003494" stroke-width="2" stroke-linecap="round" stroke-linejoin="round"/><path d="M 685,915 L 682.787609182893,904.8126454070716 L 674.7597634898281,913.0469452272348 Z" fill="rgb(0,52,148)" stroke="#003494" stroke-width="2" stroke-linecap="round" stroke-linejoin="round"/></g></g><g id="21szjkwe16"><g transform="translate(685 795)"><ellipse cx="45.5" cy="30.5" rx="45.5" ry="30.5" fill="rgba(143,212,232,1)" stroke="#2a3333" stroke-width="2" stroke-linecap="round" stroke-linejoin="round"/></g><g transform="translate(685, 808.5) rotate(0, 45.5, 17)" width="91" height="34"><text text-decoration="none" x="3.5" fill="rgb(75, 51, 33)" font-size="9pt" font-family="Arial"  y="11">Pause,stop&#160;</text><text text-decoration="none" x="66.5" fill="rgb(75, 51, 33)" font-size="9pt" font-family="Arial"  y="11">and&#160;</text><text text-decoration="none" x="7" fill="rgb(75, 51, 33)" font-size="9pt" font-family="Arial"  y="30">rewind&#160;</text><text text-decoration="none" x="46" fill="rgb(75, 51, 33)" font-size="9pt" font-family="Arial"  y="30">speech</text><text text-decoration="none" x="84" fill="#4b4b4b" font-size="10pt" font-family="noto_regular"  y="30"></text></g></g><g id="23iv1q8wdq"><g transform="translate(1000 655)"><rect x="0" y="0" width="90.58822989463806" height="198.96226823329926" fill="rgba(255,255,255,1)" stroke="#000000" stroke-width="1.5" stroke-linecap="round" stroke-linejoin="round"/></g><g transform="translate(1022.794114947319, 665) rotate(0, 22.5, 0)" width="45" height="18"><text text-decoration="none" x="1" fill="rgb(84, 84, 84)" font-size="10pt" font-family="noto_regular"  y="15">System</text><text text-decoration="none" x="44" fill="#4b4b4b" font-size="10pt" font-family="noto_regular"  y="15"></text></g><g transform="translate(1022.794114947319, 631) rotate(0, 22.5, 19)" width="45" height="19"><text text-decoration="none" x="2.5" fill="rgb(0, 0, 0)" font-size="9pt" font-family="Arial"  y="15">System</text><text text-decoration="none" x="42.5" fill="#4b4b4b" font-size="10pt" font-family="noto_regular"  y="15"></text></g></g><g id="1e5ck31n5y"><g><path d="M 497,725 L 685,820" fill="none" stroke="#000000" stroke-width="1" stroke-linecap="round" stroke-linejoin="round"/><path d="M 685,820 L 680.3028585292521,810.6933502948989 L 674.5972607381485,820.6781464293301 Z" fill="rgb(0,0,0)" stroke="#000000" stroke-width="1" stroke-linecap="round" stroke-linejoin="round"/></g></g><g id="15qvypfojo"><g transform="translate(840 725)"><path d="M 0,44.908257722854614 C 4.195164356290782e-15,79.16437433714388 37.08333402872086,100.57444722107468 66.75000125169754,83.44638891393005 C 80.51834942563531,75.49722938941059 89.00000166893005,60.80657677189353 89.00000166893005,44.908257722854614 C 89.00000166893005,10.652141108565342 51.916667640209205,-10.757931775365446 22.25000041723252,6.370126531779178 C 8.481652243294757,14.319286056298637 1.9469825535228906e-15,29.009938673815697 0,44.908257722854614" fill="rgb(246, 246, 246)" stroke="rgb(98, 98, 98)" stroke-width="1.5" vector-effect="non-scaling-stroke"/></g><g transform="translate(861, 751) rotate(0, 23.5, 0)" width="47" height="34"><text text-decoration="none" x="4" fill="#000000" font-size="9pt" font-family="Arial"  y="11">Speech</text><text text-decoration="none" x="43" fill="#000000" font-size="9pt" font-family="Arial"  y="11"></text><text text-decoration="none" x="3.5" fill="#000000" font-size="9pt" font-family="Arial"  y="30">Output&#160;</text><text text-decoration="none" x="43.5" fill="#4b4b4b" font-size="10pt" font-family="noto_regular"  y="30"></text></g></g><g id="egbs25xbo4"><g><path d="M 772,636 L 850,740" fill="none" stroke="#000000" stroke-width="1" stroke-linecap="round" stroke-linejoin="round"/><path d="M 850,740 L 849.3826086956522,729.5934782608696 L 840.1826086956522,736.4934782608696 Z" fill="rgb(0,0,0)" stroke="#000000" stroke-width="1" stroke-linecap="round" stroke-linejoin="round"/></g></g><g id="bhjohelxzy"><g><path d="M 774,735 L 840,760" fill="none" stroke="#000000" stroke-width="1" stroke-linecap="round" stroke-linejoin="round"/><path d="M 840,760 L 833.9049843466163,751.5425978625416 L 829.8313731266036,762.296931483375 Z" fill="rgb(0,0,0)" stroke="#000000" stroke-width="1" stroke-linecap="round" stroke-linejoin="round"/></g></g><g id="2earr2yifm"><g><path d="M 998,726 L 998,726" fill="none" stroke="#000000" stroke-width="1" stroke-linecap="round" stroke-linejoin="round"/></g></g><g id="2c2j00y2no"><g><path d="M 999,738 L 925,760" fill="none" stroke="#000000" stroke-width="1" stroke-linecap="round" stroke-linejoin="round"/><path d="M 925,760 L 934.9736777917296,763.0335817174483 L 931.6965197087756,752.0104136202392 Z" fill="rgb(0,0,0)" stroke="#000000" stroke-width="1" stroke-linecap="round" stroke-linejoin="round"/></g></g></svg>